<svg xmlns="http://www.w3.org/2000/svg" width="100%" height="100%" viewBox="0 0 1200 400"><defs><linearGradient id="bgGrad" x1="0%" x2="100%" y1="0%" y2="100%"><stop offset="0%" stop-color="#070b14"/><stop offset="40%" stop-color="#0c1427"/><stop offset="80%" stop-color="#111836"/><stop offset="100%" stop-color="#161233"/></linearGradient><linearGradient id="glowLineGrad" x1="0%" x2="100%" y1="0%" y2="0%"><stop offset="0%" stop-color="#38bdf8" stop-opacity="0"><animate attributeName="stop-color" dur="6s" repeatCount="indefinite" values="#38bdf8;#818cf8;#34d399;#38bdf8"/></stop><stop offset="50%" stop-color="#818cf8" stop-opacity="1"><animate attributeName="stop-color" dur="6s" repeatCount="indefinite" values="#818cf8;#34d399;#38bdf8;#818cf8"/></stop><stop offset="100%" stop-color="#34d399" stop-opacity="0"><animate attributeName="stop-color" dur="6s" repeatCount="indefinite" values="#34d399;#38bdf8;#818cf8;#34d399"/></stop></linearGradient><linearGradient id="textShimmer" x1="0%" x2="200%" y1="0%" y2="0%"><stop offset="0%" stop-color="#fff"/><stop offset="25%" stop-color="#67e8f9"/><stop offset="50%" stop-color="#a5b4fc"/><stop offset="75%" stop-color="#f472b6"/><stop offset="100%" stop-color="#fff"/><animate attributeName="x1" dur="7s" from="-100%" repeatCount="indefinite" to="100%"/><animate attributeName="x2" dur="7s" from="100%" repeatCount="indefinite" to="300%"/></linearGradient><linearGradient id="cardGrad" x1="0%" x2="100%" y1="0%" y2="100%"><stop offset="0%" stop-color="#1e293b" stop-opacity=".88"/><stop offset="100%" stop-color="#0f172a" stop-opacity=".8"/></linearGradient><radialGradient id="haloCyan" cx="85%" cy="25%" r="45%"><stop offset="0%" stop-color="#38bdf8" stop-opacity=".25"/><stop offset="100%" stop-color="#38bdf8" stop-opacity="0"/></radialGradient><radialGradient id="haloViolet" cx="15%" cy="75%" r="50%"><stop offset="0%" stop-color="#818cf8" stop-opacity=".2"/><stop offset="100%" stop-color="#818cf8" stop-opacity="0"/></radialGradient><filter id="glow" width="140%" height="140%" x="-20%" y="-20%"><feGaussianBlur result="blur" stdDeviation="8"/><feComposite in="SourceGraphic" in2="blur" operator="over"/></filter><filter id="softShadow" width="140%" height="140%" x="-20%" y="-20%"><feDropShadow dx="0" dy="8" flood-color="#000" flood-opacity=".5" stdDeviation="12"/></filter></defs><style>@keyframes pulseOrb{0%{transform:scale(1);opacity:.2}50%{transform:scale(1.15);opacity:.35}}@keyframes floatSlow{0%{transform:translateY(0)}50%{transform:translateY(-8px)}}@keyframes floatReverse{0%{transform:translateY(0)}50%{transform:translateY(8px)}}.orb-cyan{animation:pulseOrb 6s ease-in-out infinite;transform-origin:85% 25%}.orb-violet{animation:pulseOrb 8s ease-in-out infinite;transform-origin:15% 75%}.floating-card-1{animation:floatSlow 5s ease-in-out infinite}.floating-card-2{animation:floatReverse 6s ease-in-out infinite}.floating-card-3{animation:floatSlow 7s ease-in-out infinite}.grid-line{stroke:#334155;stroke-opacity:.18;stroke-width:1}</style><rect width="1200" height="400" fill="url(#bgGrad)" rx="16"/><rect width="1200" height="400" fill="url(#haloCyan)" class="orb-cyan"/><rect width="1200" height="400" fill="url(#haloViolet)" class="orb-violet"/><g><line x1="0" x2="1200" y1="80" y2="80" class="grid-line"/><line x1="0" x2="1200" y1="160" y2="160" class="grid-line"/><line x1="0" x2="1200" y1="240" y2="240" class="grid-line"/><line x1="0" x2="1200" y1="320" y2="320" class="grid-line"/><line x1="150" x2="150" y1="0" y2="400" class="grid-line"/><line x1="350" x2="350" y1="0" y2="400" class="grid-line"/><line x1="600" x2="600" y1="0" y2="400" class="grid-line"/><line x1="850" x2="850" y1="0" y2="400" class="grid-line"/><line x1="1050" x2="1050" y1="0" y2="400" class="grid-line"/></g><g opacity=".38" transform="translate(760, 110)"><rect width="60" height="190" x="0" y="70" fill="#1e293b" stroke="#38bdf8" stroke-opacity=".3"/><line x1="15" x2="15" y1="85" y2="240" stroke="#38bdf8" stroke-dasharray="2 6" stroke-opacity=".35"/><line x1="45" x2="45" y1="85" y2="240" stroke="#38bdf8" stroke-dasharray="2 6" stroke-opacity=".35"/><rect width="85" height="240" x="75" y="20" fill="#0f172a" stroke="#818cf8" stroke-opacity=".5" stroke-width="1.5"/><polygon fill="#1e1b4b" stroke="#818cf8" stroke-opacity=".6" points="75 20 117.5 -15 160 20"/><line x1="117.5" x2="117.5" y1="-15" y2="-35" stroke="#38bdf8" stroke-width="2"/><circle cx="117.5" cy="-36" r="3" fill="#34d399"><animate attributeName="opacity" dur="2s" repeatCount="indefinite" values="0.2;1;0.2"/></circle><g fill="#38bdf8" opacity=".45"><rect width="12" height="8" x="90" y="40" rx="1"/><rect width="12" height="8" x="110" y="40" rx="1"/><rect width="12" height="8" x="130" y="40" rx="1"/><rect width="12" height="8" x="90" y="60" rx="1"/><rect width="12" height="8" x="110" y="60" fill="#34d399" rx="1"/><rect width="12" height="8" x="130" y="60" rx="1"/><rect width="12" height="8" x="90" y="80" rx="1"/><rect width="12" height="8" x="110" y="80" rx="1"/><rect width="12" height="8" x="130" y="80" fill="#f472b6" rx="1"/><rect width="12" height="8" x="90" y="100" rx="1"/><rect width="12" height="8" x="110" y="100" rx="1"/><rect width="12" height="8" x="130" y="100" rx="1"/></g><rect width="70" height="205" x="175" y="55" fill="#1e293b" stroke="#34d399" stroke-opacity=".3"/><line x1="195" x2="195" y1="70" y2="240" stroke="#34d399" stroke-dasharray="2 6" stroke-opacity=".35"/><line x1="225" x2="225" y1="70" y2="240" stroke="#34d399" stroke-dasharray="2 6" stroke-opacity=".35"/><rect width="65" height="165" x="260" y="95" fill="#0f172a" stroke="#818cf8" stroke-opacity=".3"/><line x1="280" x2="280" y1="110" y2="240" stroke="#818cf8" stroke-dasharray="2 6" stroke-opacity=".35"/></g><g class="floating-card-1" filter="url(#softShadow)" transform="translate(860, 60)"><rect width="180" height="60" fill="url(#cardGrad)" stroke="#38bdf8" stroke-opacity=".5" stroke-width="1.2" rx="10"/><circle cx="28" cy="30" r="14" fill="#0284c7" fill-opacity=".3"/><text x="28" y="35" fill="#38bdf8" font-family="system-ui, -apple-system, sans-serif" font-size="14" text-anchor="middle">🏢</text><text x="52" y="27" fill="#f8fafc" font-family="system-ui, -apple-system, sans-serif" font-size="13" font-weight="700">100k+ Units</text><text x="52" y="44" fill="#94a3b8" font-family="system-ui, -apple-system, sans-serif" font-size="11">Active Portfolios</text></g><g class="floating-card-2" filter="url(#softShadow)" transform="translate(940, 160)"><rect width="190" height="60" fill="url(#cardGrad)" stroke="#34d399" stroke-opacity=".5" stroke-width="1.2" rx="10"/><circle cx="28" cy="30" r="14" fill="#059669" fill-opacity=".3"/><text x="28" y="35" fill="#34d399" font-family="system-ui, -apple-system, sans-serif" font-size="14" text-anchor="middle">⚡</text><text x="52" y="27" fill="#f8fafc" font-family="system-ui, -apple-system, sans-serif" font-size="13" font-weight="700">Auto Rent Flow</text><text x="52" y="44" fill="#94a3b8" font-family="system-ui, -apple-system, sans-serif" font-size="11">ACH &amp; Cards Enabled</text></g><g class="floating-card-3" filter="url(#softShadow)" transform="translate(880, 260)"><rect width="180" height="60" fill="url(#cardGrad)" stroke="#818cf8" stroke-opacity=".5" stroke-width="1.2" rx="10"/><circle cx="28" cy="30" r="14" fill="#4f46e5" fill-opacity=".3"/><text x="28" y="35" fill="#818cf8" font-family="system-ui, -apple-system, sans-serif" font-size="14" text-anchor="middle">🛠️</text><text x="52" y="27" fill="#f8fafc" font-family="system-ui, -apple-system, sans-serif" font-size="13" font-weight="700">Work Orders</text><text x="52" y="44" fill="#94a3b8" font-family="system-ui, -apple-system, sans-serif" font-size="11">Tenant Portals</text></g><g><g transform="translate(70, 70)"><rect width="360" height="30" fill="#1e1b4b" stroke="#6366f1" stroke-opacity=".6" stroke-width="1.2" rx="15"/><circle cx="16" cy="15" r="4" fill="#34d399"><animate attributeName="opacity" dur="2s" repeatCount="indefinite" values="0.3;1;0.3"/></circle><text x="28" y="20" fill="#a5b4fc" font-family="system-ui, -apple-system, BlinkMacSystemFont, 'Segoe UI', Roboto, sans-serif" font-size="11" font-weight="700" letter-spacing=".8">CURATED REAL ESTATE TECH ECOSYSTEM</text></g><text x="0" y="82" fill="url(#textShimmer)" font-family="system-ui, -apple-system, BlinkMacSystemFont, 'Segoe UI', Roboto, sans-serif" font-size="38" font-weight="900" letter-spacing="-.8" transform="translate(70, 70)">Awesome Rental Property Management</text><text x="0" y="122" fill="#cbd5e1" font-family="system-ui, -apple-system, BlinkMacSystemFont, 'Segoe UI', Roboto, sans-serif" font-size="16.5" font-weight="400" letter-spacing=".1" transform="translate(70, 70)">The definitive index of leading <tspan fill="#38bdf8" font-weight="700">Commercial SaaS Platforms</tspan> and <tspan fill="#34d399" font-weight="700">Open-Source PMS Systems</tspan></text><text x="0" y="148" fill="#94a3b8" font-family="system-ui, -apple-system, BlinkMacSystemFont, 'Segoe UI', Roboto, sans-serif" font-size="14" font-weight="400" transform="translate(70, 70)">Covering Tenant Portals • Automated Rent • Legal Leases • Maintenance Dispatch • Trust Accounting</text><g><g transform="translate(70, 70) translate(0, 185)"><rect width="130" height="34" fill="#0f172a" stroke="#38bdf8" stroke-opacity=".5" stroke-width="1.2" rx="17"/><text x="65" y="21" fill="#e2e8f0" font-family="system-ui, -apple-system, sans-serif" font-size="12" font-weight="600" text-anchor="middle">🏢 SaaS Leaders</text></g><g transform="translate(70, 70) translate(0, 185) translate(142, 0)"><rect width="140" height="34" fill="#0f172a" stroke="#34d399" stroke-opacity=".5" stroke-width="1.2" rx="17"/><text x="70" y="21" fill="#e2e8f0" font-family="system-ui, -apple-system, sans-serif" font-size="12" font-weight="600" text-anchor="middle">🔓 Open-Source</text></g><g transform="translate(70, 70) translate(0, 185) translate(294, 0)"><rect width="140" height="34" fill="#0f172a" stroke="#818cf8" stroke-opacity=".5" stroke-width="1.2" rx="17"/><text x="70" y="21" fill="#e2e8f0" font-family="system-ui, -apple-system, sans-serif" font-size="12" font-weight="600" text-anchor="middle">💰 Pricing &amp; Limits</text></g><g transform="translate(70, 70) translate(0, 185) translate(446, 0)"><rect width="135" height="34" fill="#0f172a" stroke="#f472b6" stroke-opacity=".5" stroke-width="1.2" rx="17"/><text x="67.5" y="21" fill="#e2e8f0" font-family="system-ui, -apple-system, sans-serif" font-size="12" font-weight="600" text-anchor="middle">⭐ Star Rankings</text></g></g></g><line x1="0" x2="1200" y1="398" y2="398" stroke="url(#glowLineGrad)" stroke-width="3" filter="url(#glow)"/></svg>